<?xml version="1.0"?>
<svg xmlns="http://www.w3.org/2000/svg" xmlns:xlink="http://www.w3.org/1999/xlink"><defs><g id="enemy_chopper"><g clip-path="url(#a)"><path fill="#fff" fill-rule="evenodd" d="M22.027 16.708 11.035 5.688c-.09-.092.026-.236.134-.167l5.747 3.675a.1.1 0 0 1 .03.029l5.438 7.735q.01.014.023.024L30.38 23q.462.347.812.804l3.388 4.442c.08.105-.062.233-.158.143L22.663 17.408l5.818 10.114a.344.344 0 0 1-.09.454l-2.697 1.538a.107.107 0 0 0 .002.187l2.06 1.128a.107.107 0 0 1 .002.188l-.101.056a.1.1 0 0 1-.092.006l-3.981-1.558a.107.107 0 0 1-.011-.195l.15-.08a.107.107 0 0 0 .012-.181l-3.173-2.308a.4.4 0 0 0-.113-.054l-3.307-.887a.34.34 0 0 1-.215-.172l-4.294-8.175a.34.34 0 0 0-.103-.119l-5.977-4.227.002.094a2.975 2.975 0 1 1-1.723-2.7l16.949 6.206-4.869-3.26-4.426-3.624c-.103-.084.01-.243.124-.175l4.573 2.75.016.012zM4.871 13.216a1.292 1.292 0 1 1-2.584 0 1.292 1.292 0 0 1 2.584 0" clip-rule="evenodd"/></g><defs><clipPath id="a"><path fill="#fff" d="M.104.794h35v35h-35z"/></clipPath></defs></g><g id="enemy_gunship"><path fill="#fff" fill-rule="evenodd" d="M5.117 5.464 1.354 1.965c-.108-.1-.007-.275.133-.234L5.18 2.824a.138.138 0 0 0 .177-.12l.23-2.329a.138.138 0 0 1 .246-.073l3.055 3.776c4.597-.5 9.16 2.713 10.85 4.544 1.703 1.844 1.275 4.165 1.02 5.545-.067.366-.122.665-.122.873 0 .63.587 1.042 1.362 1.585.438.306.935.654 1.42 1.107 1.077 1.006 1.483 1.683 1.947 2.476.134-.598.628-1.196.168-2.969-.206-.793.026-.905 1.014.262.634.75 1.6 3.964 1.271 5.1 1.795 1.87 5.602 7.294 5.294 8.64-.084.368-.235.692-.426.818l1.992 3.495c.065.145-.126.267-.23.148l-3.07-2.751c-.259.125-.676.298-1.721.13-.808-.129-2.404-2.07-3.47-3.366-.417-.505-.752-.913-.929-1.077-.341-.317-.895-.29-1.423-.263-.444.022-.869.044-1.135-.14-.467-.324-1.57-1.332-2.064-1.796-.404.539-1.508 1.85-2.693 2.783-1.481 1.166-6.014 1.84-8.707 1.122-2.154-.575-3.86-2.454-4.443-3.322.434-.284 1.607-.61 2.828.36 1.423 1.13 3.276-.161 5.049-1.396l.381-.265c1.241-.857 1.704-.352 2.311.311.315.344.669.73 1.19.99 1.22.61 2.397-.698 2.727-1.521-.21-.255-1.22-1.135-2.727-1.89-1.21-.605-1.662-1.21-2.354-2.136-.385-.516-.844-1.132-1.55-1.903-1.392-1.517-2.515-1.988-3.874-2.557-.57-.239-1.182-.495-1.872-.853-2.333-1.212-3.545-4.264-3.725-6.643-.14-1.872 1.212-3.463 1.94-4.055m2.745 6.596c-.87-.718-1.25-2.183-.795-2.54.583-.46 3.64-.055 4.85.663.976.578.745-1.074.414-2.849-.357-1.92 5.943 2.631 5.692 3.633-.269 1.076-1.28 1.316-2.624 1.237l-1.1-.252c-.71-.082-.851.85-1.105 1.402-.29.633-.298.785-.863 1.015-.718.224-3-1.097-4.469-2.309" clip-rule="evenodd"/></g><g id="enemy_strider"><path fill="#fff" d="m26.774 13.315.168-.817.014-.042 1.764.504a2.01 2.01 0 0 0 2.31-.953l4.621 2.426c.073.038.137-.064.072-.113l-4.35-3.292.324-1.079c.138-.46.019-.96-.313-1.31l-.919-.967a1.34 1.34 0 0 0-.635-.374l-2.067-.538a1.34 1.34 0 0 0-.417-.928l-3.707-3.52A7.38 7.38 0 0 0 16.77.505l-3.523.881c-2.03.729-3.187.608-.497 2.362l.88.466c-.17.29-.432.617-.568.91L8.426 15.14c-.208.45-.15.974.148 1.355L.279 35.245a.335.335 0 0 0 .307.47h.631a.34.34 0 0 0 .302-.19l8.54-17.77c.184.111.307.142.327.045.066-.33 3.001-3.852 4.843-6.023.303-.358.38-.855.198-1.288a1.24 1.24 0 0 1 .528-1.56l.205-.116a1.342 1.342 0 0 1 2.007 1.164v7.506c0 .524.298.97.724 1.191V35.38c0 .185.15.335.335.335h.252c.178 0 .325-.139.335-.317l.926-16.84c.413-.232.685-.674.685-1.17v-.584a.814.814 0 0 1 1.63 0v.175c0 .344.16.619.393.791q-.002.037.003.076l2.726 17.585a.335.335 0 0 0 .331.284h.512c.2 0 .356-.175.333-.375L25.198 17.16l.79-.903c.152-.174.257-.385.303-.612l.09-.433 3.039 1.311c1.693.777 3.05 1.248 4.372 1.508.162 0 .385-.106.244-.184z"/></g><g id="kill_explosion"><path fill="#fff" d="M10.46 31.61 1.82 18.684c-.076-.113.071-.241.173-.151l8.28 7.344c.079.07.203.007.192-.099L8.342 4.467c-.014-.134.173-.18.223-.055l7.07 17.677a.116.116 0 0 0 .22-.011l3.63-12.668c.036-.125.22-.105.227.025l.98 16.347a.116.116 0 0 0 .205.068l7.83-9.396c.08-.097.236-.013.2.108l-3.37 11.307a.116.116 0 0 0 .142.145l8.355-2.305c.127-.035.205.136.095.209l-8.623 5.723a.1.1 0 0 1-.064.02h-3.06l2.078-1.914a.116.116 0 0 0-.079-.201h-1.285A.116.116 0 0 1 23 29.43v-2.776c0-.096-.11-.15-.186-.093l-3.29 2.484a.116.116 0 0 1-.179-.052l-1.31-3.455a.116.116 0 0 0-.222.011l-.597 2.282a.116.116 0 0 1-.202.045l-3.072-3.735a.116.116 0 0 0-.205.087l.611 5.503a.116.116 0 0 1-.17.115l-2.872-1.576c-.105-.058-.218.062-.153.164l2.057 3.227h-2.653a.12.12 0 0 1-.097-.052"/></g><g id="kill_longdistance"><g clip-path="url(#a)"><path fill="#fff" fill-rule="evenodd" d="M17.27 5.382v4.84h1.46v-4.84c6.399.364 11.524 5.49 11.888 11.889h-4.84v1.458h4.84c-.364 6.4-5.49 11.525-11.889 11.89v-4.841h-1.458v4.84c-6.4-.364-11.525-5.49-11.89-11.889h4.841v-1.458h-4.84c.364-6.4 5.49-11.525 11.889-11.89m.001 26.697c-7.205-.367-12.982-6.145-13.35-13.35H.5v-1.458h3.421c.368-7.205 6.145-12.983 13.35-13.35V.5h1.458v3.421c7.206.367 12.983 6.145 13.35 13.35H35.5v1.458H32.08c-.367 7.206-6.144 12.983-13.35 13.35V35.5h-1.458zM18 19.7a1.7 1.7 0 1 0 0-3.402 1.7 1.7 0 0 0 0 3.402" clip-rule="evenodd"/></g><defs><clipPath id="a"><path fill="#fff" d="M0 0h36v36H0z"/></clipPath></defs></g><g id="kill_sawblade"><path fill="#fff" fill-rule="evenodd" d="M21.904 33.674q-.008 0-.014-.003a.05.05 0 0 1-.026-.027 1 1 0 0 0-.044-.125l-.68-1.669-.03-.072-.042-.107a13 13 0 0 1-3.341 2.457l.011.023a.043.043 0 0 1-.055-.04 2 2 0 0 0-.01-.133l-.225-1.787-.01-.078-.013-.113a13 13 0 0 1-3.863 1.508l.006.024a.04.04 0 0 1-.035-.015.04.04 0 0 1-.009-.037q.016-.066.025-.13l.245-1.786.011-.077.016-.113q-.367.102-.744.183h-.002l-.096.02-.023.005h-.005l-.014.004-.076.015-.027.005-.01.002-.018.004-.063.012-.031.006-.013.002-.021.003-.053.01-.036.006-.017.004-.021.003-.045.008-.04.007-.021.003-.02.003-.038.006-.046.007-.024.004-.017.003-.032.005-.051.007-.028.004-.015.002-.025.004-.058.008-.03.004-.012.001-.02.003-.065.008-.032.004-.008.001-.015.002-.076.009-.03.003h-.005l-.01.002-.094.01-.02.002h-.002q-.126.013-.254.024h-.003l-.031.002-.081.007h-.01l-.008.001-.039.002-.065.005h-.015l-.012.002-.039.002-.056.003-.02.001-.016.001-.037.002-.05.002-.023.001-.021.001-.035.001-.043.002h-.029l-.025.002h-.031l-.038.002h-.033l-.03.001h-.027l-.033.002h-.096l-.027.001h-.248l-.056-.001h-.055l-.013-.001-.064-.002h-.043l-.008-.001h-.01l-.077-.003-.038-.001h-.009l-.125-.006v.026a.04.04 0 0 1-.02-.01l-.002-.002-.001-.002-.007-.01a.04.04 0 0 1 0-.038h.002q.03-.06.057-.12l.699-1.66.03-.073.045-.105c-1.359.012-2.74-.19-4.1-.626l-.007.024a.042.042 0 0 1-.011-.066q.046-.05.086-.1l1.105-1.424.048-.062.071-.09a13 13 0 0 1-3.798-1.665l-.014.021a.04.04 0 0 1-.013-.035.04.04 0 0 1 .02-.033h.001A1 1 0 0 0 4 25.707l1.436-1.089.062-.047.092-.069q-.333-.188-.656-.397H4.93l-.082-.055-.02-.012-.004-.003-.011-.008-.065-.043-.023-.015-.007-.005-.016-.011-.053-.036-.027-.018-.01-.008-.018-.012-.044-.03-.03-.022-.014-.01-.017-.012-.037-.026-.034-.024-.017-.012-.016-.012-.031-.022-.038-.028-.02-.014-.014-.01-.025-.02-.042-.03-.022-.017-.012-.01-.021-.015-.046-.035-.024-.018-.01-.008-.017-.012-.051-.04-.025-.02-.007-.005-.012-.01-.06-.047-.023-.018-.004-.004-.008-.006-.074-.06-.015-.011-.002-.002q-.098-.08-.195-.163l-.003-.002-.024-.02-.062-.053-.008-.007-.006-.005-.029-.025-.049-.043-.01-.01-.01-.008-.03-.026-.041-.037-.014-.013-.013-.011-.027-.025-.037-.033-.018-.017-.015-.014-.025-.023-.032-.03-.021-.019-.018-.017-.024-.022-.027-.026-.024-.023-.021-.02-.02-.019-.024-.023-.028-.027-.023-.023-.018-.017-.02-.02-.03-.03-.026-.025-.094-.094-.011-.012-.013-.013-.04-.04-.028-.03-.01-.01-.009-.01-.044-.046-.03-.03-.005-.007-.007-.007-.052-.056-.026-.028-.003-.003-.088-.095-.019.017a.1.1 0 0 1-.006-.024q0-.008.003-.014a.04.04 0 0 1 .027-.026h.001q.048-.015.094-.032l.03-.012 1.669-.68.072-.03.107-.041a13 13 0 0 1-2.457-3.342l-.023.012a.043.043 0 0 1 .04-.055q.067-.002.133-.01c.301-.038 1.55-.195 1.787-.226l.078-.009.113-.013a13 13 0 0 1-1.507-3.863l-.025.005q0-.02.015-.035a.04.04 0 0 1 .037-.008 2 2 0 0 0 .13.024l1.786.246.077.01.113.017a13 13 0 0 1-.183-.744v-.003l-.02-.096-.005-.023v-.004l-.004-.015-.015-.075-.005-.028-.002-.009-.004-.019-.012-.063-.006-.03-.002-.014-.003-.021-.01-.053-.006-.036-.004-.017-.003-.02-.008-.045-.007-.041-.003-.021-.003-.02-.006-.038-.007-.045-.004-.024-.003-.018-.005-.032-.007-.05-.004-.028-.002-.015-.004-.026-.008-.058-.004-.03-.001-.012-.003-.02-.008-.065-.004-.031-.001-.009-.002-.015-.008-.075-.004-.03v-.005l-.002-.01-.01-.095-.002-.02v-.001l-.024-.254v-.004l-.002-.03-.007-.082v-.01l-.001-.008-.002-.038-.005-.065v-.015l-.002-.013-.002-.038-.003-.057-.001-.019-.001-.017-.002-.037-.002-.05-.001-.023-.001-.02-.001-.035-.002-.043v-.03l-.002-.024v-.032l-.002-.037v-.034l-.001-.029v-.028l-.002-.033v-.095l-.001-.028v-.248l.001-.056v-.054l.001-.014.002-.064v-.043l.001-.008v-.01l.003-.076.001-.039v-.009L4.17 9.7l-.026-.002a.05.05 0 0 1 .025-.03.04.04 0 0 1 .037.002v.001l.045.022q.03.015.06.028l.015.007 1.66.699.073.03.105.046c-.012-1.36.19-2.74.626-4.1l-.025-.008a.043.043 0 0 1 .067-.01q.05.045.1.086l1.424 1.105.062.048.09.07c.34-1.315.893-2.598 1.665-3.798l-.021-.013a.04.04 0 0 1 .036-.014.04.04 0 0 1 .032.02v.002q.033.056.074.108l1.089 1.436.047.062.069.092q.188-.333.397-.655v-.002l.055-.082.012-.02.003-.004.008-.012.043-.064.016-.023.004-.008.011-.016.036-.053.018-.026.008-.011.012-.018.03-.044.022-.03.01-.014.012-.017.026-.037.024-.034.012-.017.012-.016.022-.03.028-.038.014-.02.01-.014.02-.026.03-.041.017-.023.01-.012.015-.02.035-.047.018-.024.008-.01.012-.016.04-.052.02-.024.005-.007.01-.012.046-.06.019-.023.004-.004.006-.009.06-.073.011-.016.002-.001q.08-.099.163-.196l.002-.003.02-.024.053-.061.007-.008.005-.006.025-.03.043-.048.01-.012.008-.009.026-.029.037-.042.013-.014.011-.013.025-.027.033-.037.017-.017.014-.016.023-.025.03-.032.02-.02.016-.019.022-.023.026-.028.023-.024.02-.02.019-.021.023-.024.027-.027.022-.024.018-.017.02-.02.03-.03.025-.027.094-.094.012-.01.013-.014.04-.039.03-.029.01-.009.01-.01.046-.044.03-.03.007-.005.006-.006.057-.053.028-.026.007-.006.092-.085-.004-.004-.014-.015.013-.005h.003a.04.04 0 0 1 .022.002.04.04 0 0 1 .026.027v.001q.019.064.044.125l.68 1.668.03.072.042.107a13 13 0 0 1 3.341-2.457l-.012-.022a.043.043 0 0 1 .056.04h-.001q.003.066.01.132l.226 1.787.009.078.014.113a13 13 0 0 1 3.863-1.507l-.006-.025q.022 0 .035.016t.009.036l-.001.001a2 2 0 0 0-.024.13l-.246 1.785-.01.077-.017.114q.369-.103.745-.183h.002l.096-.021.023-.005h.005l.014-.004.076-.015.027-.005.009-.002.019-.004.063-.012.031-.005.013-.003.021-.003.053-.01.036-.006.017-.004.02-.003.046-.008.04-.006.021-.004.02-.003.038-.006.046-.007.024-.004.017-.003.032-.005.05-.007.029-.004.015-.002.025-.004.058-.007.03-.005.012-.001.02-.003.065-.008.031-.004.01-.001.014-.002.076-.008.03-.004h.005l.01-.002.094-.01.02-.002h.001l.254-.024h.004l.031-.002.08-.007h.019l.038-.003.065-.005h.015l.013-.002.039-.002.056-.003.02-.001.016-.001.037-.002.05-.002h.023l.02-.002.035-.001.044-.002h.028l.025-.002h.032l.037-.002h.034l.029-.001h.028l.033-.001h.039l.032-.001h.025l.027-.001h.248l.056.001.042.001h.026l.064.002h.043l.008.001h.01l.076.003.039.001h.004l.13.006v-.025a.05.05 0 0 1 .03.024.04.04 0 0 1-.001.038h-.001q-.032.058-.057.12l-.699 1.66-.03.072-.046.105c1.36-.011 2.741.19 4.1.626l.008-.024q.018.01.022.03a.04.04 0 0 1-.011.037h-.001a2 2 0 0 0-.086.1l-1.105 1.423-.048.062-.07.09c1.315.34 2.598.893 3.798 1.666l.014-.022q.015.014.013.036a.05.05 0 0 1-.02.032h-.002a1 1 0 0 0-.108.074l-1.436 1.089-.062.047-.092.069q.333.188.655.397l.085.055.02.013.003.002.012.008.065.043.022.016.008.004.016.012.053.035.026.019.011.007.018.012.044.03.03.022.014.01.017.012.037.026.034.024.017.012.016.012.031.023.037.027.02.014.015.011.025.019.041.031.023.016.012.01.021.015.046.035.024.019.01.007.016.013.052.04.024.019.008.005.012.01.06.047.022.018.005.004.008.006.074.06.015.012.001.001.196.163.003.002.024.02.062.053.007.007.007.005.028.026.05.042.01.01.01.008.03.026.041.038.014.012.013.012.027.025.037.033.017.016.016.014.025.024.032.029.021.02.018.016.023.022.028.026.024.023.02.02.021.02.024.022.028.027.023.023.017.017.02.02.031.03.026.025.094.094.01.012.014.013.039.04.03.03.008.01.01.01.044.046.03.03.005.007.006.007.053.056.026.028.006.007.085.092.019-.017a.043.043 0 0 1-.024.063h-.001a1 1 0 0 0-.125.044l-1.668.68-.072.03-.107.042a13 13 0 0 1 2.457 3.341l.022-.011a.04.04 0 0 1-.006.037.04.04 0 0 1-.033.018h-.001a2 2 0 0 0-.132.01l-1.787.225-.078.01-.114.013a13 13 0 0 1 1.508 3.863l.025-.005a.043.043 0 0 1-.052.043h-.001a2 2 0 0 0-.13-.025l-1.785-.245-.077-.011-.114-.016q.103.367.183.744l.021.098.005.023v.005l.004.014.015.076.005.027.002.01.003.018.012.063.006.031.002.013.004.022.01.052.006.036.003.017.004.021.008.045.006.04.004.021.003.02.006.038.007.046.004.024.003.017.004.032.008.051.004.028.002.015.004.026.007.057.005.03.001.012.003.02.008.066.004.03v.01l.003.014.008.076.004.03v.005l.002.01.01.094.002.02v.002l.023.254v.003l.003.031.007.081v.018l.003.039.005.065v.015l.001.012.002.039.004.056.001.02v.016l.002.037.003.05v.023l.002.021.001.035.002.043v.029l.001.025.001.031.002.038v.033l.001.03v.027l.001.033v.039l.001.032v.153l.001.023v.124l-.001.056-.001.042v.026l-.002.064v.043l-.001.008v.01l-.003.076-.002.04v.008l-.005.125h.025l-.004.013-.002.002-.002.003a.1.1 0 0 1-.016.012l-.014.004h-.005a.1.1 0 0 1-.019-.005v-.001l-.01-.005-.02-.01-.018-.01-.071-.032-1.66-.699-.073-.03-.105-.046c.012 1.36-.19 2.742-.626 4.1l.024.008a.042.042 0 0 1-.067.011 2 2 0 0 0-.1-.087l-1.423-1.105-.062-.047-.09-.071a13 13 0 0 1-1.666 3.798l.022.014a.04.04 0 0 1-.036.013.04.04 0 0 1-.032-.02v-.001a1 1 0 0 0-.074-.109l-1.089-1.436-.047-.062-.069-.092q-.188.333-.397.656l-.001.002-.054.082-.013.02-.002.003-.008.012-.043.065-.016.023-.004.007-.012.016-.035.053-.019.026-.007.011-.012.018-.03.044-.022.03-.01.014-.012.017-.026.037-.024.034-.012.017-.012.016-.023.031-.027.038-.014.019-.011.015-.019.025-.03.042-.017.022-.01.012-.015.021-.035.046-.018.024-.008.01-.012.016-.04.052-.02.025-.005.007-.01.012-.047.06-.018.023-.004.004-.006.008-.06.074-.012.015v.002l-.164.195-.002.003-.02.024-.053.062-.007.008-.005.006-.025.029-.043.049-.01.01-.008.01-.026.03-.037.041-.013.014-.012.013-.024.027-.033.037-.017.017-.014.016-.023.025-.03.032-.02.021-.016.018-.022.023-.026.028-.023.024-.02.021-.02.02-.022.024-.027.028-.023.023-.017.017-.02.02-.03.031-.025.026-.094.094-.012.011-.013.013-.04.04-.03.028-.01.01-.01.009-.046.044-.03.03-.007.005-.007.007-.056.052-.028.026-.007.007-.092.084.017.019-.012.005zM18.277 15.82l-.014-.002a2.2 2.2 0 0 0-.521 0h-.001l-.02.002q-.279.036-.539.14l-.002.001-.046.02h-.003l-.044.02-.006.003-.042.02-.007.003-.04.02-.008.005-.038.02-.01.005-.035.02-.013.007-.032.02-.015.01-.03.017-.017.012-.026.017-.02.014-.023.016-.024.018-.018.012-.029.023-.01.008q-.208.163-.37.369l-.012.016a2.2 2.2 0 0 0-.283.48v.002l-.02.046v.003l-.018.046-.002.005-.016.044-.002.008-.014.041-.003.01-.013.04-.003.013-.01.038-.004.015-.01.035-.004.018-.008.033-.004.021-.006.03-.005.026-.004.026-.005.03-.003.021-.005.037-.002.013q-.03.26 0 .522l.002.02q.036.278.14.54l.02.047.021.048.022.047.004.007.02.04.005.009.02.037.006.01.02.035.007.013.019.032.01.015.017.03.012.017.017.026.015.021.015.022.018.025.012.017.02.026.011.014q.163.206.369.37l.016.012q.223.172.48.282l.048.02.049.018.05.018.006.002.043.014.01.003.04.013.012.003.038.011.015.003.036.01.017.004.033.008.022.004.03.006.025.005.026.005.03.004.021.003.034.005.016.002q.262.032.522 0h.001l.02-.002a2.2 2.2 0 0 0 .538-.14h.002l.046-.02.003-.001.045-.02.005-.002.042-.02.007-.004.04-.02.009-.004.037-.02.01-.006.036-.02.013-.007.032-.02.015-.009.029-.018.018-.012.025-.016.021-.015.022-.015.025-.018.017-.013.03-.022.01-.009q.207-.162.37-.368v-.001l.012-.015q.172-.223.282-.48l.001-.003.019-.046.001-.003.018-.045.002-.006.016-.044.002-.007.014-.042.003-.01.012-.04.004-.012.01-.039.004-.014.01-.036.003-.018.008-.033.004-.021.007-.03.004-.026.005-.025.004-.03.004-.022.005-.036.002-.014q.03-.26 0-.521v-.001l-.003-.02a2.2 2.2 0 0 0-.14-.539v-.002l-.02-.046v-.003l-.02-.044-.003-.006-.02-.042-.003-.007-.02-.04-.005-.008-.02-.038-.006-.01-.02-.035-.007-.013-.019-.032-.01-.015-.017-.03-.012-.017-.017-.026-.015-.02-.015-.023-.018-.024-.012-.018-.023-.029-.008-.011a2.2 2.2 0 0 0-.369-.369l-.016-.012a2.2 2.2 0 0 0-.48-.283h-.002l-.046-.02h-.004l-.045-.018-.006-.002-.043-.016-.008-.002-.042-.014-.01-.003-.04-.013-.012-.003-.038-.01-.015-.004-.036-.01-.017-.004-.034-.008-.02-.004-.03-.006-.026-.005-.026-.004-.03-.005-.022-.003z" clip-rule="evenodd"/></g><g id="npc_alyx"><path fill="#fff" fill-rule="evenodd" d="M6.179 1.621c0-.343.27-.621.604-.621h2.435c.334 0 .604.278.604.621l.563 8.073c0 .342.27.62.604.62a.613.613 0 0 0 .605-.62l.294-8.073c0-.343.27-.621.604-.621h2.568c.334 0 .604.278.604.621l.565 8.073c0 .342.27.62.605.62a.613.613 0 0 0 .605-.62l.424-8.073c0-.343.27-.621.605-.621h2.434c.334 0 .604.278.604.621l.568 8.073c0 .342.27.62.605.62a.613.613 0 0 0 .604-.62l.422-8.073c0-.343.27-.621.605-.621h2.434c.334 0 .605.278.605.621l.57 13.528c0 .553.251.738 1.032.439l1.754-.649c.425-.226.685-.236.907.061l1.971 2.714a.634.634 0 0 1-.023.786l-8.637 10.662a.63.63 0 0 0-.113.618l.903 4.389c.141.404-.15.831-.57.831H7.804c-.415 0-.706-.418-.573-.82l1.204-5.45a.64.64 0 0 0-.044-.501l-1.192-2.2a12.05 12.05 0 0 1-1.449-5.735zm4.836 28.708.611-4.08a.89.89 0 0 1 .873-.769h8.196a.89.89 0 0 1 .872.769l.612 4.08c.082.549-.332 1.044-.873 1.044h-9.418c-.541 0-.955-.495-.873-1.044" clip-rule="evenodd"/></g><g id="npc_barney"><path fill="#fff" d="M.92 5.228a1.395 1.395 0 0 1 1.06-2.573 2.512 2.512 0 0 1 4.18-.768L2.14 5.906a.764.764 0 0 0 0 1.08l.9.9A1.954 1.954 0 0 1 .92 5.228"/><path fill="#fff" d="M9.505 14.162q.058.067.107.138l.05.071c.204.26.379.534.497.828.201.489.37.953.524 1.408.31.912.537 1.764.672 2.57q.022.119.053.23l.004.019.018.07c.138.539.385 1.004.734 1.354l12.642 12.642.002-.001 1.507 1.507-.001.001c.481.482 1.238.55 1.917.247l.023-.008q.018-.005.034-.014l.037-.022.036-.022c.203-.106.4-.242.576-.418l6.05-6.05a2.4 2.4 0 0 0 .43-.595l.01-.018.03-.055.004-.01.01-.028c.303-.681.235-1.436-.246-1.918l-14.15-14.15c-.342-.341-.798-.584-1.324-.726-.113-.032-.227-.063-.349-.083a17 17 0 0 1-2.594-.679 25 25 0 0 1-1.383-.517 3.4 3.4 0 0 1-.755-.439l-.053-.038-.019-.013a4 4 0 0 1-.14-.104l-.07-.06a18 18 0 0 0-.37-.32q-.125-.106-.248-.215A50 50 0 0 0 11 6.493a46 46 0 0 0-2.775-1.946 1.6 1.6 0 0 1-.277-.24 2 2 0 0 1-.147-.178l-.028-.038c-.055-.074-.109-.146-.154-.232a2.24 2.24 0 0 0-.869-.914l-.001.001-.002-.001-3.58 3.58h.002l-.001.002c.08.15.183.283.298.403.17.18.37.34.617.466.092.048.169.107.245.166l.022.016q.097.07.179.145c.09.087.176.176.241.278a45 45 0 0 0 1.977 2.819q1.067 1.41 2.273 2.784l.214.248.006.008q.13.153.264.305z"/></g><g id="npc_breen"><path fill="#fff" fill-rule="evenodd" d="M30.514.25H6.171v35.5h24.343zM24.46 1.771a.17.17 0 0 0-.169-.169h-1.37a.17.17 0 0 0-.17.17v1.37a.17.17 0 0 0 .17.17h1.37a.17.17 0 0 0 .17-.17zm-6.966 28.975a.17.17 0 0 1-.17.17h-6.117a.01.01 0 0 1-.007-.017.015.015 0 0 1-.024-.004L7.97 24.556c-.086-.17.13-.33.268-.198l2.566 2.459a.18.18 0 0 1 .053.135l-.003.124A2.69 2.69 0 1 0 13.82 24.4a.18.18 0 0 1-.108-.052l-2.367-2.45c-.132-.136.028-.353.198-.268l5.858 2.929a.17.17 0 0 1 .094.151zm-1.866-3.662a2.093 2.093 0 1 1-4.185 0 2.093 2.093 0 0 1 4.185 0m13.365-25.44a.17.17 0 0 1 .169.168v9.705a.17.17 0 0 1-.17.17h-3.916a.17.17 0 0 1-.169-.17V1.812c0-.093.076-.169.17-.169zm-.232 26.642a.17.17 0 0 0 .169-.169v-3.342a.17.17 0 0 0-.17-.17H19.11a.17.17 0 0 0-.17.17v3.342c0 .093.076.17.17.17zm-2.498 6.31c.093 0 .17-.076.17-.17V28.85a.17.17 0 0 0-.17-.17H24.63a.17.17 0 0 0-.169.17v5.577c0 .093.076.169.17.169zm-4.037-1.54a.17.17 0 0 1 .169-.17h1.37a.17.17 0 0 1 .17.17v1.37a.17.17 0 0 1-.17.17h-1.37a.17.17 0 0 1-.17-.17zm-.574-1.336c.03.032.048.074.048.118v2.589a.17.17 0 0 1-.169.169h-2.422a.17.17 0 0 1-.17-.17v-5.068c0-.151.185-.226.29-.118zm.574-14.832a.17.17 0 0 1 .169-.17h3.868a.17.17 0 0 1 .17.17v3.868a.17.17 0 0 1-.17.17h-3.868a.17.17 0 0 1-.17-.17zm4.598 4.432a.17.17 0 0 1 .117.047l1.688 1.634c.11.105.035.29-.117.29h-9.535a.17.17 0 0 1-.169-.169v-1.634a.17.17 0 0 1 .17-.168zm-8.016-8.113a.17.17 0 0 1 .17-.169h9.526c.153 0 .227.187.116.292l-3.125 2.948a.17.17 0 0 1-.116.047h-6.402a.17.17 0 0 1-.169-.17zm3.285-11.564c.093 0 .17.076.17.17v6.466a.17.17 0 0 1-.053.122l-3.15 3.012a.17.17 0 0 1-.286-.122V1.812a.17.17 0 0 1 .17-.169z" clip-rule="evenodd"/></g><g id="npc_dog"><path fill="#fff" fill-rule="evenodd" d="M20.639 3.966q.028.065.091.096l1.016.508q.046.024.075.066l.829 1.243q.031.05.032.108v.662c0 .084.054.158.133.185l.735.245c.08.026.167-.001.217-.068l.094-.125a.19.19 0 0 0 .018-.205L21.59 2.19a.2.2 0 0 1-.02-.088V.964q0-.067.041-.12l.317-.401a.2.2 0 0 1 .152-.074h.476c.076 0 .146.044.177.114l2.33 5.15c.086.191.371.13.371-.08v-.268c0-.081.051-.154.128-.182l.54-.199a.195.195 0 0 1 .243.098l.63 1.305a.195.195 0 0 0 .23.102l.648-.19c.082-.024.14-.1.14-.187V5.84c0-.09.072-.161.16-.161.083 0 .152.061.161.143l.298 2.683a.16.16 0 0 1-.156.175h-.068a.09.09 0 0 1-.09-.09.09.09 0 0 0-.153-.062l-.113.113a.14.14 0 0 1-.096.04.136.136 0 0 0-.134.162l.144.717a.195.195 0 0 1-.191.232h-.404a.18.18 0 0 1-.099-.03.175.175 0 0 0-.268.191c.309 1.1.797 2.9 1.008 3.898.21.987.285 1.774.302 2.168a.173.173 0 0 0 .171.166c.092 0 .167.075.167.167v.14c0 .107.087.194.195.194h.375a.153.153 0 0 0 .153-.153c0-.085.068-.153.153-.153h.332c.09 0 .169-.063.19-.15L30.544 14a.195.195 0 0 1 .19-.15h.164c.076 0 .146.044.177.114l.342.751q.022.052.015.108l-.401 2.84a.2.2 0 0 0 .011.098l.385.974a.2.2 0 0 1 .013.071v.49a.2.2 0 0 1-.031.105l-.36.552a.2.2 0 0 0-.03.086l-.438 3.988a.2.2 0 0 0 0 .047l.248 1.811.611 2.752.385 2.665a.2.2 0 0 1 0 .062l-.359 1.994a.195.195 0 0 0 .105.208l.151.076c.066.033.108.1.108.174v1.858a.195.195 0 0 1-.217.193l-2.056-.23a.195.195 0 0 1-.17-.224l.244-1.548a.195.195 0 0 0-.275-.206l-.616.291a.2.2 0 0 1-.203-.023l-.23-.18a.195.195 0 0 0-.315.154v1.75a.195.195 0 0 1-.234.191l-2.376-.498a.195.195 0 0 1-.154-.21l.19-1.957c.009-.1.093-.176.193-.176h.12c.1 0 .183-.076.193-.176l.342-3.44a.2.2 0 0 1 .011-.049l.548-1.487a.2.2 0 0 0-.004-.145l-.207-.477a.2.2 0 0 1 .01-.177l.228-.387 1.762-3.081a.2.2 0 0 0 .023-.068l.716-4.73.002-.03v-1.18a.195.195 0 0 0-.39 0v.054a.2.2 0 0 1-.062.143l-.208.19a.2.2 0 0 0-.063.144v.374a.2.2 0 0 1-.042.121l-.473.596a.194.194 0 0 1-.278.028l-.486-.408a.2.2 0 0 1-.067-.117c-.376-2.395-1.292-7.199-2.262-9.406-.079-.18-.34-.12-.387.071l-.025.095c-.044.15-.211.13-.255-.02l-.05-.167a.195.195 0 0 0-.28-.116l-1.05.573a.195.195 0 0 0-.1.202l.067.405c.01.06-.009.12-.05.165l-1.851 1.98a.2.2 0 0 1-.142.062h-.556a.195.195 0 0 0-.194.195v.58a.2.2 0 0 1-.034.108l-.45.667a.195.195 0 0 0 .112.298l.67.172c.087.022.147.1.147.188v.28c0 .168.197.257.323.146l.317-.278a.2.2 0 0 1 .128-.049h1.844c.097 0 .179.071.192.167l.465 3.225a.2.2 0 0 1-.04.148l-.393.503a.2.2 0 0 0-.037.16l.2.951c.018.09.098.155.19.155h.583c.088 0 .165.059.188.143l.343 1.25a.2.2 0 0 1 .007.051v1.641a.195.195 0 0 1-.195.195h-.306a.195.195 0 0 0-.194.195v1.45c0 .08-.05.153-.126.182l-.362.138a.2.2 0 0 0-.12.137l-.185.781a.195.195 0 0 0 .129.23l1.237.405c.074.024.126.09.133.168l.256 2.842a.106.106 0 0 1-.105.115.106.106 0 0 0-.098.149l.11.252a.195.195 0 0 1-.154.27l-1.191.15a.2.2 0 0 1-.176-.072l-.541-.676a.2.2 0 0 0-.152-.073h-.86a.2.2 0 0 1-.161-.086l-.827-1.226a.2.2 0 0 1-.033-.11v-1.302c0-.083.053-.157.13-.184l.355-.123a.195.195 0 0 0 .128-.216l-.294-1.76a.2.2 0 0 1 .033-.145l.832-1.173a.2.2 0 0 0 .015-.2l-.513-1.026a.2.2 0 0 1 .005-.183l.509-.902a.2.2 0 0 0 .003-.185l-.216-.413a.195.195 0 0 1 .041-.234l.14-.128a.2.2 0 0 0 .058-.187l-.273-1.184a.195.195 0 0 0-.19-.151h-.352a.2.2 0 0 1-.163-.088l-.51-.775a.195.195 0 0 0-.296-.035l-.22.206a.2.2 0 0 1-.133.053h-3.808a.195.195 0 0 0-.187.14l-.957 3.335c-.02.068 0 .141.05.191l1.106 1.107q.035.035.05.083l.562 1.918a.2.2 0 0 0 .159.137l1.25.186c.078.01.14.067.16.143l.134.516a.2.2 0 0 1-.053.189l-1.75 1.698a.2.2 0 0 0-.06.14v.956a.19.19 0 0 1-.118.179l-1.958.824a.2.2 0 0 1-.076.015h-.378a.195.195 0 0 1-.194-.194.195.195 0 0 0-.195-.195h-.35a.2.2 0 0 0-.153.074l-.125.159a.195.195 0 0 1-.276.03l-.248-.204a.2.2 0 0 1-.072-.15v-.812q0-.07.045-.124l1.315-1.598a.2.2 0 0 1 .15-.071h.326a.195.195 0 0 0 .194-.195v-.263a.2.2 0 0 0-.017-.081l-.25-.544a.2.2 0 0 0-.128-.108l-1.38-.357a.2.2 0 0 1-.06-.027l-.92-.622a.163.163 0 0 1-.025-.25.163.163 0 0 0-.115-.277h-.58a.195.195 0 0 1-.184-.132l-.314-.917a.2.2 0 0 1 .022-.17l.754-1.144 2.508-4.664a.195.195 0 0 0-.051-.245l-1.08-.847a.195.195 0 0 1 .011-.314l.473-.32a.2.2 0 0 0 .085-.162V14.6c0-.177.218-.262.338-.132l.755.822c.082.09.226.083.299-.015l.122-.163a.2.2 0 0 0 .02-.2l-.828-1.73a.195.195 0 0 1 .052-.234l.33-.27a.195.195 0 0 0 .017-.286l-1.83-1.904a.2.2 0 0 1-.053-.135V8.978a.195.195 0 0 0-.236-.19l-.56.121a.2.2 0 0 0-.135.107l-.184.386a.2.2 0 0 1-.176.111h-.49a.195.195 0 0 0-.194.195v.374c0 .153.167.246.297.166l.556-.342a.195.195 0 0 1 .291.124l.35 1.56a.2.2 0 0 1 .002.073l-.663 4.163a.195.195 0 0 1-.192.164h-.214c-.121 0-.213.109-.192.228l.152.867.003.034v1.542c0 .052.02.101.057.138l.079.079c.052.052.07.13.046.201l-.526 1.506a.19.19 0 0 1-.184.13h-.195a.195.195 0 0 0-.195.195v.32c0 .068-.056.124-.125.124a.125.125 0 0 0-.125.126v.412l-.004.037-.81 4.16a.2.2 0 0 0 .053.175l.01.011c.052.05.07.126.05.194l-.82 2.695a.2.2 0 0 1-.026.054l-.41.596a.195.195 0 0 0 .139.304l1.255.14a.195.195 0 0 1 .173.193v1.673q0 .07-.045.125l-.73.876a.2.2 0 0 1-.15.07H7.84a.144.144 0 0 1-.144-.144.144.144 0 0 0-.258-.09l-.133.166a.2.2 0 0 0-.04.154l.143.855a.195.195 0 0 1-.192.227h-1.37a.2.2 0 0 1-.123-.044l-.26-.215a.097.097 0 0 0-.159.074.097.097 0 0 1-.151.08l-1.806-1.252a.195.195 0 0 1-.07-.233l.654-1.609a.2.2 0 0 0 .013-.053l.189-1.881a.2.2 0 0 1 .02-.07l.363-.7a.2.2 0 0 0 .015-.038l.523-1.925.723-4.281L6.998 18.1a.195.195 0 0 1 .248-.129l.884.295a.195.195 0 0 0 .243-.115l.578-1.5a.195.195 0 0 0-.06-.222l-1.105-.894a.2.2 0 0 1-.069-.188l.567-2.913a.2.2 0 0 1 .132-.148l.45-.144c.08-.026.136-.101.136-.186v-.678a.2.2 0 0 0-.114-.177l-.802-.368a.2.2 0 0 1-.113-.177v-.403a.195.195 0 0 0-.195-.195h-.485a.195.195 0 0 1-.19-.233l.574-2.848a.2.2 0 0 1 .096-.131l1.952-1.09a.2.2 0 0 1 .212.015l1.442 1.087q.041.031.062.08l.184.442c.041.098.153.145.251.107l1.398-.55a.2.2 0 0 0 .108-.104l1.22-2.825a.2.2 0 0 1 .046-.065l2.028-1.893a.2.2 0 0 1 .133-.053h1.19q.067.001.12.041l2.439 1.903q.04.03.059.075zm-13.105 15.9a.2.2 0 0 0-.07-.013h-.218a.195.195 0 0 0-.192.16l-.933 5.192a.195.195 0 0 0 .276.21l1.408-.673a.195.195 0 0 1 .255.084l.324.607a.195.195 0 0 0 .363-.053l.773-3.865a.2.2 0 0 0-.006-.098l-.262-.808a.2.2 0 0 0-.114-.122zm2.031-1.319a.195.195 0 0 1-.187-.248l.204-.712a.195.195 0 0 1 .26-.127l.233.093c.074.03.122.101.122.18v.62a.195.195 0 0 1-.194.194zm7.723-2.557a1.251 1.251 0 1 1-2.502 0 1.251 1.251 0 0 1 2.502 0m-1.28.695a.667.667 0 1 0 0-1.335.667.667 0 0 0 0 1.335" clip-rule="evenodd"/></g><g id="npc_gman"><path fill="#fff" d="M24.622 24.132a10.16 10.16 0 0 0 1.62-5.52c0-2.035-.596-3.93-1.62-5.52a24.3 24.3 0 0 1 8.743 5.52 24.3 24.3 0 0 1-8.743 5.52M2 18.612a24.3 24.3 0 0 0 8.043 5.253 10.16 10.16 0 0 1-1.454-5.254c0-1.922.531-3.72 1.454-5.253A24.3 24.3 0 0 0 2 18.612"/><path fill="#fff" fill-rule="evenodd" d="M17.5 25a6.5 6.5 0 1 0 0-13 6.5 6.5 0 0 0 0 13m0-3.823a2.676 2.676 0 1 0 0-5.353 2.676 2.676 0 0 0 0 5.353" clip-rule="evenodd"/></g><g id="npc_grigori"><path fill="#fff" fill-rule="evenodd" d="M5.506 4.013a1.506 1.506 0 1 1 0-3.013 1.506 1.506 0 0 1 0 3.013m25.608-1.507a1.506 1.506 0 1 1-3.013 0 1.506 1.506 0 0 1 3.013 0M7.658 7.456a1.506 1.506 0 1 1 0-3.013 1.506 1.506 0 0 1 0 3.013m21.304-1.507a1.506 1.506 0 1 1-3.013 0 1.506 1.506 0 0 1 3.013 0m-18.291 4.52a1.506 1.506 0 1 1 0-3.013 1.506 1.506 0 0 1 0 3.012m15.278-1.507a1.506 1.506 0 1 1-3.012 0 1.506 1.506 0 0 1 3.012 0m-3.012 2.582a1.506 1.506 0 1 1-3.013 0 1.506 1.506 0 0 1 3.013 0m-5.38 3.228a1.506 1.506 0 1 0 0-3.013 1.506 1.506 0 0 0 0 3.013m1.437 1.291a.5.5 0 0 1 .5.5v3.304a.5.5 0 0 0 .5.5h3.734a.5.5 0 0 1 .5.5v2.874a.5.5 0 0 1-.5.5h-3.735a.5.5 0 0 0-.5.5V34.5a.5.5 0 0 1-.5.5H16.12a.5.5 0 0 1-.5-.5v-9.76a.5.5 0 0 0-.5-.5h-3.734a.5.5 0 0 1-.5-.5v-2.873a.5.5 0 0 1 .5-.5h3.734a.5.5 0 0 0 .5-.5v-3.304a.5.5 0 0 1 .5-.5zm-5.31-3.012a1.506 1.506 0 1 1 0-3.013 1.506 1.506 0 0 1 0 3.013" clip-rule="evenodd"/></g><g id="npc_kleiner"><path fill="#fff" fill-rule="evenodd" stroke="#fff" d="M8.16 6.225a.18.18 0 0 1-.162.323l-1.432-.604a.202.202 0 0 0-.277.149l-2.77 14.968h10.766a2 2 0 0 1 .142.004.1.1 0 0 1 .03-.004h18.068L29.761 6.124a.202.202 0 0 0-.277-.149l-1.432.605a.18.18 0 0 1-.162-.323l2.056-1.198a.202.202 0 0 1 .297.122l4.644 17.383a.2.2 0 0 1 .007.042c.145.45.149.952-.032 1.445l-1.236 3.358a5.66 5.66 0 0 1-5.31 3.705H25.08a4.85 4.85 0 0 1-4.73-3.782s-.2-2.11-.75-3.32c-.255-.56-.786-1.367-.786-1.367a.91.91 0 0 0-1.564-.022s-.49.79-.766 1.317c-.673 1.288-1.348 3.469-1.348 3.469a5.66 5.66 0 0 1-5.31 3.705H6.59a4.85 4.85 0 0 1-4.73-3.782l-.804-3.559a2.2 2.2 0 0 1 .164-1.453L5.807 5.15a.202.202 0 0 1 .297-.122zm12.943 16.13-.387.439a1.1 1.1 0 0 0-.086.734l.804 3.56a3.74 3.74 0 0 0 3.646 2.915h3.236a4.55 4.55 0 0 0 4.267-2.978l1.235-3.358a1.11 1.11 0 0 0-1.043-1.495H21.714c-.228 0-.437.068-.611.183Zm-17.88-.183c-.712 0-1.24.661-1.083 1.356l.803 3.56a3.74 3.74 0 0 0 3.647 2.915h3.236a4.55 4.55 0 0 0 4.267-2.978l1.235-3.358a1.11 1.11 0 0 0-1.043-1.495z" clip-rule="evenodd"/></g><g id="npc_lamarr"><path fill="#fff" d="M15.548 5.077c1.942-3.474 5.688-4.16 7.318-4.07 2.702 0 6.43 1.198 8.482 3.215.674.664.946 1.546.95 2.488.795.427 1.635 1.32 2.06 1.856.374.71-.049 1.56-.514 2.462-.581 1.129-.205 3.215 0 4.788.164 1.258-1.344 1.273-2.496 1.06-1.348-.249.513-4.343 0-4.993a6.6 6.6 0 0 0-.643-.662c-.182.25-.37.473-.554.662-.281.287-.66.57-1.112.841.293 1.49.51 3.28.188 4.152-.581 1.573-1.163 2.052-.581 2.702.581.65 1.302 2.602.82 2.933-.548.377-.239 3.223-.82 5.138-.582 1.915-3.01 7.319-4.07 8.173s.375-1.58.627-3.017c.261-1.482.98-9.02.536-10.15-.445-1.128-1.129-1.607-.923-2.154.154-.412 1.354-3.805 1.181-6.422-.261.09.522-.17.255-.089.055 1.643-.75 3.234-1.231 4.049-.445.752-1.75 2.455-2.292 2.797 0-.574.41-1.292.518-2.258.12-1.08-.06-2.32 0-3.727-.071.016.07-.015 0 0 .055.953-.96 2.987-.96 3.866 0 .605-.235.745-.755.06-.332-.437-.828-2.372-.909-3.518l.26-.024s-.58.844-.58 2.024.272 2.113-.241 1.798c-1.183-.724-1.55-1.924-1.498-3.378-.142.947-.54 1.511-.544 2.573-.003 1.32-.02 1.248-.832.326-.688-1.078-1.01-3.08-.374-4.122-.065-.026.059.147-.005.12-.675 1.548-1.603 2.634-1.603 4.481 0 1.459.526 2.36 0 1.779-.434-.48-1.327-1.75-1.437-3.173-.047-.61-.047-1.12-.014-1.563-.513.343-1.06.619-1.627.776-2.271.63-3.762 1.842-4.378 2.48-.421.438-.924.151-1.325 0-1.745 1.521-2.186 3.288-2.78 5.618-.684 2.68.856 5.027 1.3 5.643 0 .581-2.484-2.57-2.701-3.686-.514-2.641-.166-5.111.58-6.574.614-1.205.924-1.488 1.856-2.379a3 3 0 0 1-.179-.315c-.137-.547-.24-1.683.445-1.847.855-.205 2.363-.174 3.488-.581.923-.335 3.696-2.448 5.346-4.986.019-1.185.434-2.787 1.768-5.172"/></g><g id="npc_magnusson"><path fill="#fff" fill-rule="evenodd" d="M22.704 2 22 2.5l-1 2c-2.5-.5-4.5-.5-8 .623L11.414 2.47 11.5 3.5l.5 2c-.966.377-1.785.833-2.823 1.442-1.018.536-2.193 1.446-3.21 2.729L4.5 9l1 1c-.216.29-.17.548-.366.873-.784.436-1.392.794-2.09 1.552-.85 1.098-1.275 2.34-1.52 4.113a.145.145 0 0 1-.112.122l-.299.066a.144.144 0 0 0-.112.155l.192 2.014c.007.075.069.131.143.131h.231c.062 0 .116.04.138.097q.065.172.15.336c.48.93 1.096 1.52 1.79 2.284l-1.07 1.035 1.408-.452c.257.272.507.52.738.739.42 1.08.957 2.213 1.63 3.398q.12.21.304.369c.718.617.915 1.02 1.845 1.668l-1.203 2.341v1.029L9.5 29c2.185 1.385 4.752 2.67 8 2.5l.5 2 .5.5-.088-2.428c1.343-.112 2.431-.11 3.955-.73l1.59 1.82.804.338-1.531-2.715q.36-.16.727-.343c.36.305 1.1.665 2.03.339.807-.284 1.377-1.301 1.69-2.118l4.619-1.774c.19-.073.354-.2.464-.372.785-1.223 2.102-3.786 2.209-6.09.13-2.797-.15-5.184-.736-6.604-.12-.29-.33-.527-.586-.708-.773-.546-2.12-1.431-4.09-2.643-.264-.77-1.081-2.439-2.236-2.958-.16-.072-.46-.105-.721-.072l.721-1.443-.721.36-1.017 1.235a12.5 12.5 0 0 0-3.523-1.97zm-1.608 9.55 3.38.802a.626.626 0 1 0 .285-1.22l-3.668-.85a27.2 27.2 0 0 0-7.276-.679l-3.908.163a.627.627 0 1 0 .053 1.253l3.79-.165c2.468-.108 4.94.126 7.344.697M7.394 15.544l17.29 1.312a.641.641 0 1 1-.096 1.279l-17.29-1.312a.641.641 0 1 1 .096-1.279m4.7 6.784-4.388-1.104a.611.611 0 1 0-.295 1.187l4.659 1.15c2.114.521 4.283.787 6.461.792l4.957.01a.612.612 0 1 0 .001-1.225l-4.872-.001c-2.199 0-4.39-.272-6.523-.809" clip-rule="evenodd"/></g><g id="npc_mossman"><path fill="#fff" d="M26.456 11.12c1.69.484 2.748.769 4.007 2.658 1.175 1.763 2.352 7.864 4.55 15.37a1.27 1.27 0 0 1-1.214 1.63h-1.85c-.565 0-1.06-.375-1.211-.919-.594-2.144-1.129-4.193-1.559-5.84-.611-2.341-1.01-3.867-1.06-3.687-.02.073-.01.152-.02.227l-1.264 9.132a1.26 1.26 0 0 1-1.247 1.087h-13.59a1.26 1.26 0 0 1-1.24-1.037l-1.64-9.157c-.016-.091.034-.313-.045-.264-.093.058-.479 1.532-1.048 3.71-.43 1.645-.966 3.69-1.559 5.83-.15.543-.646.918-1.21.918H3.191a1.268 1.268 0 0 1-1.213-1.623c2.106-7.253 3.386-13.031 4.559-15.377 1.26-1.89 3.124-2.628 4.977-3.054 1.13-.26 2.17-.499 2.813-.813.043-.02.027-.083-.021-.083-.312 0-.58-.401-.535-.803l.446-2.852c.044-.313.267-.58.534-.58h7.662c.267 0 .49.267.535.58l.445 2.852c.045.446-.223.803-.535.803-.048 0-.064.063-.02.084.782.397 2.19.8 3.618 1.208"/></g><g id="npc_vance"><path fill="#fff" fill-rule="evenodd" d="M.505 4.445A1.34 1.34 0 0 1 1.84 3h25.843c.781 0 1.399.667 1.335 1.445l-.207 2.545a8.177 8.177 0 0 1-1.325 16.218l-.449 5.495A4.677 4.677 0 0 1 22.375 33H7.147a4.677 4.677 0 0 1-4.661-4.297zm28.086 5.23-.886 10.849a5.505 5.505 0 0 0 .886-10.85m-10.56 3.499v1.268h-2.702v-1.276l.352.008v-2.451h-.642v-1.01l2.592-.65.023 4.11zM4.565 21.57h2.877q1.719 0 2.616-.81.896-.812.896-2.31 0-1.54-.904-2.322-.9-.787-2.6-.787H4.566v1.378h.626v3.473h-.626zm2.63-1.378v-3.473h.247q.666 0 .963.481.298.482.298 1.25 0 .5-.133.896a1.33 1.33 0 0 1-.411.622q-.278.224-.717.224zm6.592 0v1.378H11.04v-1.378h.619l1.072-3.473h-.818V15.34h3.88l1.39 4.85h.614v1.379h-3.504v-1.378h.51l-.169-.666h-1.413l-.177.666zm.658-1.614-.454-1.906-.572 1.906zm6.849 2.992h-2.878v-1.378h.627v-3.473h-.627V15.34h2.886q1.7 0 2.6.787.904.782.904 2.321 0 1.5-.897 2.31t-2.615.81m-.247-4.851v3.473h.247q.438 0 .716-.224.279-.227.412-.622.133-.396.133-.897 0-.767-.298-1.249-.298-.48-.963-.481zm-9.18-2.625.182-.79h.449l-.174.79h.863l.182-.79h.41l.177-.825h-.403l.232-.992h.402l.174-.824h-.389l.243-1.038h-.899l-.231 1.038h-.433l.243-1.038h-.893l-.232 1.038h-.388l-.176.824h.38l-.22.992h-.392l-.168.824h.372l-.174.791zm.372-1.615.226-.992h.44l-.22.992z" clip-rule="evenodd"/></g><g id="weapon_357"><path fill="#fff" fill-rule="evenodd" d="m8.902 2.177-.525.525a1 1 0 0 0 0 1.414l9.322 9.322c.432.432.519 1.101.21 1.63a2.64 2.64 0 0 0 .443 3.236q.275.266.554.542l-.014.013a3.485 3.485 0 0 0 3.997 5.595c.309 1.034.345 2.109-.032 3.214a6.8 6.8 0 0 1-1.789 2.774c-1.307 1.243-1.357 2.65.141 3.655 2.194 1.471 5.147 1.133 6.156-1.308 1.383-3.345 1.967-7.408 2.044-9.545l-.952-.952c-.6-.6-.926-1.224-1.06-1.835.906-.725 2.035-.516 2.7-.224.169.073.334.085.463-.045.157-.157.193-.448.023-.59-1.218-1.014-2.47-.872-3.184-.572.197-.94.736-1.764 1.233-2.302a.324.324 0 0 0-.002-.448c-.12-.12-.314-.11-.473-.051-.483.18-1.109-.187-1.375-.453l-4.99-4.961-7.555-7.556a3 3 0 0 1-.485-.635l-.895-1.568a2 2 0 0 0-.322-.423l-.146-.146a.79.79 0 0 0-1.12 0 .475.475 0 0 0-.673 0l-.112.112-.35.35a.303.303 0 0 0-.429 0l-.798.798a.304.304 0 0 0-.005.434" clip-rule="evenodd"/></g><g id="weapon_ar2"><g clip-path="url(#a)"><path fill="#fff" d="m4.487.045-.072.071-.714.715c-.415.415-.086 1.038.13 1.298l5.59 5.59a1 1 0 0 1 0 1.415l-.079.079a1 1 0 0 1-1.414 0L3.694 4.979a1 1 0 0 0-1.414 0l-.916.916c-.208.207-.13.649.195.973L5.96 11.27a1 1 0 0 1 .044 1.366L3.54 15.448a1 1 0 0 0 .045 1.366l.93.931a1 1 0 0 0 1.386.028l3.702-3.418a1 1 0 0 1 1.331-.023l6.32 5.448a.76.76 0 0 0 1.035-.038.76.76 0 0 1 1.078 0l.013.013c.305.305.279.811.197 1.235-.074.385.016.796.29 1.07l.535.536a1 1 0 0 1 .074 1.331l-.855 1.07a1 1 0 0 0 .203 1.441l.89.63a1 1 0 0 0 1.45-.326l1.489-2.648a1 1 0 0 1 .924-.508l2.314.122a2 2 0 0 1 1.309.583l.936.935c.383.383.586.906.61 1.447.113 2.616.946 4.005 1.417 4.476.516.516 1.412.39 1.942-.111.27-.256.569-.49.879-.704 1.197-.824 1.642-2.643.614-3.67l-4.542-4.543a1.32 1.32 0 0 1-.386-.93.88.88 0 0 0-.257-.622L16.419 7.575a1 1 0 0 1 0-1.414l1.046-1.046a.826.826 0 1 0-1.169-1.168L15.25 4.993a1 1 0 0 1-1.414 0l-.591-.592-.942-.941a1.24 1.24 0 0 0-1.752 0 .413.413 0 0 1-.584 0L6.882.376C6.43-.077 6.028-.315 5.71-.427c-.453-.159-.883.133-1.222.472"/></g><defs><clipPath id="a"><path fill="#fff" d="M0 0h36v36H0z"/></clipPath></defs></g><g id="weapon_bugbait"><path fill="#fff" d="M6.128 22.532c-1.124-1.43-.468-2.638 0-3.064 1.66-2.043-1.66-3.447-2.681-4.851s1.276-1.532 3.319-1.021c2.043.51-.638-3.575-.638-5.107s2.936 1.66 5.489.766 1.532-2.425 1.66-4.595 2.042 0 3.319 1.276c1.276 1.277 2.17-2.298 3.447-2.553 1.276-.255 0 2.808 1.02 3.447 1.022.638 1.007-2.767 2.937-3.064 1.66-.255-.284 2.143 1.149 3.064 1.787 1.149 2.425 1.787 4.723 3.957s1.788 5.617 1.915 8.681c.128 3.064.894 3.064-.766 4.468s-1.802 5.96-7.532 8.043c-5.617 2.042-13.886-2.754-16.212-5.745-.894-1.149.255-1.915-1.15-3.702"/><circle cx="31.404" cy="6.574" r="1.277" fill="#fff"/><circle cx="35.362" cy="17.681" r=".638" fill="#fff"/><circle cx="8.809" cy="4.66" r="1.66" fill="#fff"/><circle cx="1.021" cy="18.83" r="1.021" fill="#fff"/></g><g id="weapon_crossbow"><g clip-path="url(#a)"><path fill="#fff" fill-rule="evenodd" d="M8.708 3.85a.09.09 0 0 0 .154-.067l-.02-.497a.18.18 0 0 0-.052-.12L7.5 1.876a.34.34 0 0 1-.097-.185 13 13 0 0 1-.088-.618.17.17 0 0 1 .146-.194C8.73.72 11.538 1.021 14 3.397c.072.07.073.184.002.255l-.308.308a.18.18 0 0 0-.052.14l.346 4.843c.01.13.065.252.157.344l2.795 2.795a.271.271 0 0 0 .383-.383l-.51-.51a.18.18 0 0 1 0-.256l1.34-1.342a.18.18 0 0 1 .256 0l5.485 5.486a.17.17 0 0 1 .046.169c-.266.931-1.038 1.355-1.477 1.476a.17.17 0 0 1-.163-.046l-.378-.378a.27.27 0 1 0-.383.383l1.867 1.867c.064.065.07.166.021.242-.536.835-.936 2.803 1.241 4.98 2.874 2.874 4.918 4.151 9.58 5.62.639.128.192.575-.32.83-.123.062-.356.128-.643.21-.9.253-2.339.66-2.677 1.579-.17.46-.248.83-.307 1.11-.096.457-.143.678-.46.678-.26 0-.416-.157-.681-.425l-.085-.086-5.803-5.803a.47.47 0 0 0-.329-.12 1.38 1.38 0 0 1-.957-.4l-1.126-1.125a.19.19 0 0 1-.04-.202c.491-1.215.88-3.94-1.198-6.017l-6.133-6.134a.185.185 0 0 0-.255-.006c-1.214 1.085-4.498 3.034-9.053 3.073a.176.176 0 0 1-.174-.136c-.18-.807-.366-2.36-.458-3.23a.183.183 0 0 1 .188-.202c1.24.025 3.711-.235 5.49-1.445.125-.086.084-.266-.067-.285-1.199-.15-4.084-.179-5.502.855-.075.055-.177.053-.234-.02-.887-1.152-4.494-7.97 2.998-10.383a.19.19 0 0 1 .185.043zm4.113.983a.18.18 0 0 1 .308.113l.258 3.133a.18.18 0 0 1-.308.142L9.868 5.01a.18.18 0 0 1-.053-.117L9.752 3.82a.17.17 0 0 1 .206-.18c.606.142 1.456.531 2.382 1.418.072.07.187.07.257-.001z" clip-rule="evenodd"/></g><defs><clipPath id="a"><path fill="#fff" d="M0 0h36v36H0z"/></clipPath></defs></g><g id="weapon_crowbar"><g clip-path="url(#a)"><path fill="#fff" d="M19.42 1.332C16.412 2.27 8.267 4.848 5.636 6.295c-3.212 1.766-3.995 6.696-.764 9.419.882.743 7.812 6.954 17.747 15.859l2.808 2.517a1 1 0 0 0 .668.255h5.394a.25.25 0 0 0 .168-.436L9.148 13.68c-2.13-2.22-1.574-3.754 1.007-4.558 1.4-.436 3.845-.968 6.193-1.478 1.908-.415 3.75-.815 4.914-1.139a.13.13 0 0 0 .086-.17l-.453-1.26a.13.13 0 0 0-.136-.088l-6.27.541c-.152.013-.203-.196-.063-.254l5.57-2.327a.133.133 0 0 0 .074-.167l-.491-1.365a.13.13 0 0 0-.16-.083"/></g><defs><clipPath id="a"><path fill="#fff" d="M0 0h36v35.999H0z"/></clipPath></defs></g><g id="weapon_frag"><path fill="#fff" d="M13.702 4.954a.25.25 0 0 1-.264.03l-1.694-.805a.25.25 0 0 0-.27.035L7.37 7.69a.25.25 0 0 0-.068.29l.387.887a.25.25 0 0 0 .248.149l1.052-.076a.25.25 0 0 1 .214.093l.019.023a.25.25 0 0 1-.04.352l-.121.097a.25.25 0 0 0-.04.351l.37.463a.25.25 0 0 1-.04.35l-3.533 2.823a.25.25 0 0 0-.04.352l.779.974a.25.25 0 0 0 .351.04l.463-.37a.25.25 0 0 1 .35.04L19.386 29.13a.25.25 0 0 1-.04.351l-.462.37a.25.25 0 0 0-.039.351l.778.974a.25.25 0 0 0 .352.04l10.14-8.098a.25.25 0 0 0 .039-.352l-.778-.974a.25.25 0 0 0-.352-.04l-.584.467a.25.25 0 0 1-.351-.04L15.62 6.563a.25.25 0 0 1 .223-.404l1.224.137a.25.25 0 0 1 .167.092l8.579 10.741a.25.25 0 0 0 .35.04l.667-.532a.25.25 0 0 0 .04-.352l-8.9-11.128a.25.25 0 0 0-.167-.092l-3.61-.41a.25.25 0 0 0-.185.054z"/></g><g id="weapon_fraggrenade"><path fill="#fff" d="M13.702 4.954a.25.25 0 0 1-.264.03l-1.694-.805a.25.25 0 0 0-.27.035L7.37 7.69a.25.25 0 0 0-.068.29l.387.887a.25.25 0 0 0 .248.149l1.052-.076a.25.25 0 0 1 .214.093l.019.023a.25.25 0 0 1-.04.352l-.121.097a.25.25 0 0 0-.04.351l.37.463a.25.25 0 0 1-.04.35l-3.533 2.823a.25.25 0 0 0-.04.352l.779.974a.25.25 0 0 0 .351.04l.463-.37a.25.25 0 0 1 .35.04L19.386 29.13a.25.25 0 0 1-.04.351l-.462.37a.25.25 0 0 0-.039.351l.778.974a.25.25 0 0 0 .352.04l10.14-8.098a.25.25 0 0 0 .039-.352l-.778-.974a.25.25 0 0 0-.352-.04l-.584.467a.25.25 0 0 1-.351-.04L15.62 6.563a.25.25 0 0 1 .223-.404l1.224.137a.25.25 0 0 1 .167.092l8.579 10.741a.25.25 0 0 0 .35.04l.667-.532a.25.25 0 0 0 .04-.352l-8.9-11.128a.25.25 0 0 0-.167-.092l-3.61-.41a.25.25 0 0 0-.185.054z"/></g><g id="weapon_gravgun"><path fill="#fff" d="M23.267 9.646a.244.244 0 0 0 .021-.402L17.753 5.02a.24.24 0 0 0-.257-.024l-1.065.533a.24.24 0 0 1-.282-.046L14.22 3.554a.244.244 0 0 1 .096-.404l.24-.079a.244.244 0 0 0 .096-.403l-.596-.596a.24.24 0 0 0-.248-.06l-5.4 1.78a.24.24 0 0 0-.115.082l-.692.888a.24.24 0 0 0-.05.177l.076.688a.223.223 0 0 0 .415.087l.264-.457a.2.2 0 0 1 .039-.05l.4-.4a.24.24 0 0 1 .21-.069l.308.049a.24.24 0 0 0 .114-.01l1.174-.383a.24.24 0 0 1 .248.06l5.249 5.248a.244.244 0 0 1 0 .344L11.5 14.595a.244.244 0 0 1-.345 0L5.907 9.346a.24.24 0 0 1-.06-.248l.384-1.175a.24.24 0 0 0 .01-.113l-.05-.308a.24.24 0 0 1 .07-.21l.4-.4a.2.2 0 0 1 .05-.039l.456-.264a.223.223 0 0 0-.087-.415l-.688-.077a.24.24 0 0 0-.177.05l-.888.692a.24.24 0 0 0-.081.116l-1.78 5.4a.24.24 0 0 0 .059.248l.596.596a.244.244 0 0 0 .404-.096l.079-.24a.244.244 0 0 1 .403-.096l1.93 1.93a.24.24 0 0 1 .045.28l-.533 1.066a.24.24 0 0 0 .024.257l4.224 5.535a.244.244 0 0 0 .402-.021l.956-1.574a.244.244 0 0 1 .38-.045l1.56 1.56a.244.244 0 0 0 .403-.096l.388-1.158a.244.244 0 0 1 .404-.095l4.813 4.814c.096.095.25.095.345 0l.869-.87a.244.244 0 0 1 .345 0l.046.048a.264.264 0 0 1 .036.316c-.577 1.017-.02 1.966.387 2.367a.23.23 0 0 0 .103.057l1.947.503c.123.032.2.153.186.28a3.8 3.8 0 0 0 1.434 3.435c.08.062.118.166.092.264l-.221.825v.001q.002 0 .001.002a1.293 1.293 0 0 0 2.494.667c-.022.072 0 .002 0 0l.215-.796a.25.25 0 0 1 .217-.184 3.8 3.8 0 0 0 2.234-1.086c.424-.424.745-.977.927-1.508.105-.308.142-.455.202-.722l.679-3.263a.24.24 0 0 0-.036-.185l-1.193-1.79a.24.24 0 0 1-.04-.135v-1.654a.24.24 0 0 0-.072-.172l-3.014-3.014a.24.24 0 0 0-.211-.068l-1.007.164a.24.24 0 0 1-.211-.068l-4.898-4.898a.244.244 0 0 1 .095-.403l1.159-.388a.244.244 0 0 0 .094-.404l-1.56-1.56a.244.244 0 0 1 .047-.38z"/></g><g id="weapon_magnum"><path fill="#fff" fill-rule="evenodd" d="m8.902 2.177-.525.525a1 1 0 0 0 0 1.414l9.322 9.322c.432.432.519 1.101.21 1.63a2.64 2.64 0 0 0 .443 3.236q.275.266.554.542l-.014.013a3.485 3.485 0 0 0 3.997 5.595c.309 1.034.345 2.109-.032 3.214a6.8 6.8 0 0 1-1.789 2.774c-1.307 1.243-1.357 2.65.141 3.655 2.194 1.471 5.147 1.133 6.156-1.308 1.383-3.345 1.967-7.408 2.044-9.545l-.952-.952c-.6-.6-.926-1.224-1.06-1.835.906-.725 2.035-.516 2.7-.224.169.073.334.085.463-.045.157-.157.193-.448.023-.59-1.218-1.014-2.47-.872-3.184-.572.197-.94.736-1.764 1.233-2.302a.324.324 0 0 0-.002-.448c-.12-.12-.314-.11-.473-.051-.483.18-1.109-.187-1.375-.453l-4.99-4.961-7.555-7.556a3 3 0 0 1-.485-.635l-.895-1.568a2 2 0 0 0-.322-.423l-.146-.146a.79.79 0 0 0-1.12 0 .475.475 0 0 0-.673 0l-.112.112-.35.35a.303.303 0 0 0-.429 0l-.798.798a.304.304 0 0 0-.005.434" clip-rule="evenodd"/></g><g id="weapon_pistol"><path fill="#fff" d="M13.139 2.294a.524.524 0 0 1 .723.017l2.317 2.317c.071.071.161.12.26.142l1.12.243c.097.022.187.07.258.142l.756.756c.08.08.133.184.149.296l.136.951a.52.52 0 0 0 .148.297l12.539 12.54c.123.04.432.11.68.06.308-.06.679.31.37.619l-.08.078c-.389.38-1.335 1.303-.476 1.59.92.306 1.174.926.865 1.482-.3.54-.989.494-1.483.247-.379-.19-.889-.408-1.284-.143l-.89 1.61a.35.35 0 0 1-.34.178l-1.9-.19a.35.35 0 0 0-.363.226c-.78 2.066-2.459 5.739-4.505 8.063a.665.665 0 0 1-.971.015l-4.963-4.963a.727.727 0 0 1 .024-1.04c1.724-1.632 4.935-5.243 3.518-6.66l-2.635-2.634a2.1 2.1 0 0 1-.585-1.827l.199-1.191a1.4 1.4 0 0 0-.39-1.218l-6.54-6.539a.52.52 0 0 1-.117-.56l1.005-2.593a.5.5 0 0 1 .136-.198z"/></g><g id="weapon_pulserifle"><g clip-path="url(#a)"><path fill="#fff" d="m4.487.045-.072.071-.714.715c-.415.415-.086 1.038.13 1.298l5.59 5.59a1 1 0 0 1 0 1.415l-.079.079a1 1 0 0 1-1.414 0L3.694 4.979a1 1 0 0 0-1.414 0l-.916.916c-.208.207-.13.649.195.973L5.96 11.27a1 1 0 0 1 .044 1.366L3.54 15.448a1 1 0 0 0 .045 1.366l.93.931a1 1 0 0 0 1.386.028l3.702-3.418a1 1 0 0 1 1.331-.023l6.32 5.448a.76.76 0 0 0 1.035-.038.76.76 0 0 1 1.078 0l.013.013c.305.305.279.811.197 1.235-.074.385.016.796.29 1.07l.535.536a1 1 0 0 1 .074 1.331l-.855 1.07a1 1 0 0 0 .203 1.441l.89.63a1 1 0 0 0 1.45-.326l1.489-2.648a1 1 0 0 1 .924-.508l2.314.122a2 2 0 0 1 1.309.583l.936.935c.383.383.586.906.61 1.447.113 2.616.946 4.005 1.417 4.476.516.516 1.412.39 1.942-.111.27-.256.569-.49.879-.704 1.197-.824 1.642-2.643.614-3.67l-4.542-4.543a1.32 1.32 0 0 1-.386-.93.88.88 0 0 0-.257-.622L16.419 7.575a1 1 0 0 1 0-1.414l1.046-1.046a.826.826 0 1 0-1.169-1.168L15.25 4.993a1 1 0 0 1-1.414 0l-.591-.592-.942-.941a1.24 1.24 0 0 0-1.752 0 .413.413 0 0 1-.584 0L6.882.376C6.43-.077 6.028-.315 5.71-.427c-.453-.159-.883.133-1.222.472"/></g><defs><clipPath id="a"><path fill="#fff" d="M0 0h36v36H0z"/></clipPath></defs></g><g id="weapon_rocketlauncher"><g clip-path="url(#a)"><path fill="#fff" d="M6.072-.034a.2.2 0 0 1 .284 0l.556.556a.2.2 0 0 1 0 .284l-.284.284a.2.2 0 0 0 0 .284l.556.556a.2.2 0 0 1 0 .284l-.142.142a.2.2 0 0 0 0 .284l5.596 5.597a.2.2 0 0 0 .284 0l.142-.142a.2.2 0 0 1 .284 0l2.796 2.796a.2.2 0 0 1 0 .284l-.141.142a.2.2 0 0 0 0 .284L30.7 26.298a.2.2 0 0 1 0 .284.2.2 0 0 0 0 .284l1.116 1.116a.2.2 0 0 0 .284 0l.425-.426a.2.2 0 0 1 .285 0l.556.556a.2.2 0 0 1 0 .284l-.426.426a.2.2 0 0 0 0 .284l.617.617a.2.2 0 0 0 .192.053l.908-.233a.2.2 0 0 1 .192.052l.617.617a.2.2 0 0 1 0 .284l-2.982 2.982a.2.2 0 0 1-.284 0l-.617-.617a.2.2 0 0 1-.052-.192l.233-.908a.2.2 0 0 0-.053-.192l-.617-.617a.2.2 0 0 0-.284 0l-.426.426a.2.2 0 0 1-.284 0l-.556-.556a.2.2 0 0 1 0-.284l.426-.426a.2.2 0 0 0 0-.284l-1.116-1.116a.2.2 0 0 0-.284 0l-.142.142a.2.2 0 0 1-.284 0L14.287 14.997a.2.2 0 0 0-.284 0l-.284.284a.2.2 0 0 1-.284 0l-.276-.276a.2.2 0 0 0-.284 0l-1.136 1.135a.2.2 0 0 1-.284 0l-.696-.696a.2.2 0 0 1 0-.284l1.136-1.136a.2.2 0 0 0 0-.283l-.276-.277a.2.2 0 0 1 0-.284l.284-.284a.2.2 0 0 0 0-.283l-1.536-1.537a.2.2 0 0 0-.284 0l-2.556 2.556a.2.2 0 0 1-.284 0l-1.816-1.816a.2.2 0 0 1 0-.284l1.136-1.136a.2.2 0 0 0 0-.284L3.766 7.316a.2.2 0 0 1 0-.284l1.136-1.136a.2.2 0 0 0 0-.284l-.416-.416a.2.2 0 0 0-.284 0 .2.2 0 0 1-.284 0l-.556-.556a.2.2 0 0 0-.284 0l-.284.284a.2.2 0 0 1-.284 0l-.556-.556a.2.2 0 0 1 0-.284z"/></g><defs><clipPath id="a"><path fill="#fff" d="M0 0h36v36H0z"/></clipPath></defs></g><g id="weapon_rpg"><g clip-path="url(#a)"><path fill="#fff" d="M6.072-.034a.2.2 0 0 1 .284 0l.556.556a.2.2 0 0 1 0 .284l-.284.284a.2.2 0 0 0 0 .284l.556.556a.2.2 0 0 1 0 .284l-.142.142a.2.2 0 0 0 0 .284l5.596 5.597a.2.2 0 0 0 .284 0l.142-.142a.2.2 0 0 1 .284 0l2.796 2.796a.2.2 0 0 1 0 .284l-.141.142a.2.2 0 0 0 0 .284L30.7 26.298a.2.2 0 0 1 0 .284.2.2 0 0 0 0 .284l1.116 1.116a.2.2 0 0 0 .284 0l.425-.426a.2.2 0 0 1 .285 0l.556.556a.2.2 0 0 1 0 .284l-.426.426a.2.2 0 0 0 0 .284l.617.617a.2.2 0 0 0 .192.053l.908-.233a.2.2 0 0 1 .192.052l.617.617a.2.2 0 0 1 0 .284l-2.982 2.982a.2.2 0 0 1-.284 0l-.617-.617a.2.2 0 0 1-.052-.192l.233-.908a.2.2 0 0 0-.053-.192l-.617-.617a.2.2 0 0 0-.284 0l-.426.426a.2.2 0 0 1-.284 0l-.556-.556a.2.2 0 0 1 0-.284l.426-.426a.2.2 0 0 0 0-.284l-1.116-1.116a.2.2 0 0 0-.284 0l-.142.142a.2.2 0 0 1-.284 0L14.287 14.997a.2.2 0 0 0-.284 0l-.284.284a.2.2 0 0 1-.284 0l-.276-.276a.2.2 0 0 0-.284 0l-1.136 1.135a.2.2 0 0 1-.284 0l-.696-.696a.2.2 0 0 1 0-.284l1.136-1.136a.2.2 0 0 0 0-.283l-.276-.277a.2.2 0 0 1 0-.284l.284-.284a.2.2 0 0 0 0-.283l-1.536-1.537a.2.2 0 0 0-.284 0l-2.556 2.556a.2.2 0 0 1-.284 0l-1.816-1.816a.2.2 0 0 1 0-.284l1.136-1.136a.2.2 0 0 0 0-.284L3.766 7.316a.2.2 0 0 1 0-.284l1.136-1.136a.2.2 0 0 0 0-.284l-.416-.416a.2.2 0 0 0-.284 0 .2.2 0 0 1-.284 0l-.556-.556a.2.2 0 0 0-.284 0l-.284.284a.2.2 0 0 1-.284 0l-.556-.556a.2.2 0 0 1 0-.284z"/></g><defs><clipPath id="a"><path fill="#fff" d="M0 0h36v36H0z"/></clipPath></defs></g><g id="weapon_shotgun"><g clip-path="url(#a)"><path fill="#fff" fill-rule="evenodd" d="M10.534 2.343a.184.184 0 0 0 0-.261L9.507 1.055a.184.184 0 0 0-.261 0l-.455.455a.184.184 0 0 1-.26 0L7.389.368a.184.184 0 0 0-.26 0L5.902 1.595a.184.184 0 0 0 0 .261l.536.536a.184.184 0 0 1 0 .261L5.21 3.88a.184.184 0 0 0 0 .26l5.265 5.266a.184.184 0 0 1 0 .261l-.483.483a.184.184 0 0 0 0 .261l.512.512a.184.184 0 0 1 0 .26l-.169.17a.184.184 0 0 0 0 .26l4.318 4.317a.184.184 0 0 0 .26 0l.169-.168a.184.184 0 0 1 .26 0l3.002 3a.184.184 0 0 1 0 .261l-.169.169a.184.184 0 0 0 0 .26l.74.741a.184.184 0 0 0 .261 0l.598-.598a.184.184 0 0 1 .26 0l2.83 2.83a.184.184 0 0 0 .261 0l.054-.054a.184.184 0 0 1 .26 0l1.616 1.615.59 3.347a.2.2 0 0 0 .052.099l1.578 1.578c.055.055.07.138.037.208l-1.286 2.783a.184.184 0 0 1-.245.09l-.147-.068a.184.184 0 0 0-.244.09l-.493 1.066a.185.185 0 0 0 .09.245l3.548 1.64a.184.184 0 0 0 .244-.09l1.69-3.653a.19.19 0 0 1 .119-.101l1.237-.333a.18.18 0 0 1 .179.048l.65.65a.184.184 0 0 0 .314-.108l.53-4.412a.18.18 0 0 0-.052-.153l-7.297-7.297a.15.15 0 0 1 0-.214.15.15 0 0 0 0-.215l-1.221-1.221a.184.184 0 0 1 0-.261l.461-.462a.184.184 0 0 0-.021-.279l-1.845-1.353a.185.185 0 0 0-.24.019l-.215.215a.184.184 0 0 1-.261 0L13.684 6.72a.184.184 0 0 0-.26 0l-.026.026a.184.184 0 0 1-.26 0L9.763 3.373a.184.184 0 0 1 0-.261zm-2.715 1.43a.184.184 0 0 1 0-.26l.483-.484a.184.184 0 0 1 .26 0l4.146 4.146a.184.184 0 0 1 0 .26l-.483.484a.184.184 0 0 1-.26 0z" clip-rule="evenodd"/></g><defs><clipPath id="a"><path fill="#fff" d="M0 0h36v36H0z"/></clipPath></defs></g><g id="weapon_smg"><g clip-path="url(#a)"><path fill="#fff" fill-rule="evenodd" d="M35.578 26.612c.047.047.054.12.016.175l-1.246 1.835a.1.1 0 0 1-.027.03l-2.075 1.665a.14.14 0 0 1-.184-.01l-.718-.717a.14.14 0 0 0-.088-.04l-.57-.041a.14.14 0 0 1-.088-.04l-4.056-4.057a.138.138 0 0 0-.21.015l-3.22 4.342-2.468 3.499a.55.55 0 0 1-.484.233l-.3-.017a.55.55 0 0 1-.359-.162l-2.856-2.856-.802-.997a.55.55 0 0 1-.097-.509l.02-.065a.55.55 0 0 1 .366-.366l.167-.051a.55.55 0 0 0 .286-.206l1.442-2.006 1.253-1.889.787-1.348a1.03 1.03 0 0 0 0-1.038.5.5 0 0 0-.08-.105l-1.828-1.828a44 44 0 0 0-1.298-1.25q-.352-.352-.481-.498c-.049-.055-.069-.16-.062-.233q.035-.402.159-.855.144-.53.336-1.01.2-.509.439-1.017a.14.14 0 0 0-.027-.158 109 109 0 0 1-1.83-1.878l-1.683-1.682q-.565-.598-1.03-1.072c-.1-.103-.284.016-.268.158q.018.123.023.207a.13.13 0 0 1-.04.098L6.86 16.407a.28.28 0 0 1-.277.069l-2.9-.893a.3.3 0 0 1-.114-.068l-.189-.189a.277.277 0 0 1 0-.391l6.514-6.513a.13.13 0 0 1 .11-.04 2 2 0 0 1 .427.091c.107.013.192-.135.116-.211L9.24 6.958q-.48-.48-.84-.553a1.4 1.4 0 0 0-.626 0 1.3 1.3 0 0 0-.427.243.15.15 0 0 1-.2-.004l-.237-.238a.14.14 0 0 1 0-.195l.846-.846a.1.1 0 0 1 .041-.028l1.62-.725c.09-.04.163-.104.094-.173L7.12 2.047a.1.1 0 0 1 0-.141L8.76.265a.125.125 0 0 1 .178 0l3.074 3.07c.009.005-.008-.008 0 0 .04.04.1.05.152.029l.742-.312a.14.14 0 0 1 .151.03l.971.97q.021.021.048.032l1.052.411a.14.14 0 0 1 .047.031l.795.796a.14.14 0 0 0 .196 0l.093-.093a.14.14 0 0 1 .195 0l.838.838a.14.14 0 0 1 0 .195l-.093.093a.14.14 0 0 0 0 .196l.67.67a.14.14 0 0 0 .196 0l.093-.093a.14.14 0 0 1 .195 0l.838.838a.14.14 0 0 1 0 .195l-.092.093a.14.14 0 0 0 0 .196l.67.67a.14.14 0 0 0 .195 0l.093-.093a.14.14 0 0 1 .195 0l.838.838a.14.14 0 0 1 0 .195l-.093.093a.14.14 0 0 0 0 .196l.67.67a.14.14 0 0 0 .196 0l.093-.094a.14.14 0 0 1 .195 0l.838.839a.14.14 0 0 1 0 .195l-.093.093a.14.14 0 0 0 0 .196l.67.67a.14.14 0 0 0 .196 0l.093-.093a.14.14 0 0 1 .195 0l.862.862a.14.14 0 0 1 0 .195l-.093.093a.14.14 0 0 0 0 .196l.646.645a.14.14 0 0 0 .196 0l.093-.093a.14.14 0 0 1 .195 0l.862.863a.14.14 0 0 1 0 .195l-.093.093a.14.14 0 0 0 0 .196l.67.67a.14.14 0 0 0 .196 0l.093-.093a.14.14 0 0 1 .195 0l.838.838a.14.14 0 0 1 0 .195l-.093.093a.14.14 0 0 0 0 .196l.502.501a.14.14 0 0 0 .195 0l.248-.247a.14.14 0 0 1 .147-.031l1.067.413a.14.14 0 0 1 .048.032l.398.398c.038.038.094.05.144.032l1.037-.373a.14.14 0 0 1 .145.032l1.378 1.379a.14.14 0 0 1 0 .195l-.57.571a.14.14 0 0 1-.126.038l-.816-.163a.14.14 0 0 0-.125.038l-.33.33a.14.14 0 0 0 0 .196l.429.43a.14.14 0 0 0 .196 0l.092-.094a.14.14 0 0 1 .196 0l.838.838a.14.14 0 0 1 0 .196l-.093.093a.14.14 0 0 0 0 .195l.478.478a.14.14 0 0 0 .195 0l.093-.093a.14.14 0 0 1 .196 0l.862.862a.14.14 0 0 1 0 .196l-.16.159a.14.14 0 0 0-.038.075l-.077.463a.14.14 0 0 0 .038.12l.453.453a.14.14 0 0 1 0 .196l-.31.31a.14.14 0 0 0 0 .195zm-14.242-5.99a.1.1 0 0 0 .036-.028l.62-.704a.14.14 0 0 0-.004-.188l-3.603-3.695a.134.134 0 0 0-.176-.015q-.258.195-.482.46a4 4 0 0 0-.457.698c-.15.283-.242.494-.318.79a.14.14 0 0 0 .036.13l2.445 2.445c.15.15.254.253.409.36.149.103.343.09.57.075l.03-.002q.355-.024.894-.326" clip-rule="evenodd"/></g><defs><clipPath id="a"><path fill="#fff" d="M0 0h36v36H0z"/></clipPath></defs></g><g id="weapon_smg1"><g clip-path="url(#a)"><path fill="#fff" fill-rule="evenodd" d="M35.578 26.612c.047.047.054.12.016.175l-1.246 1.835a.1.1 0 0 1-.027.03l-2.075 1.665a.14.14 0 0 1-.184-.01l-.718-.717a.14.14 0 0 0-.088-.04l-.57-.041a.14.14 0 0 1-.088-.04l-4.056-4.057a.138.138 0 0 0-.21.015l-3.22 4.342-2.468 3.499a.55.55 0 0 1-.484.233l-.3-.017a.55.55 0 0 1-.359-.162l-2.856-2.856-.802-.997a.55.55 0 0 1-.097-.509l.02-.065a.55.55 0 0 1 .366-.366l.167-.051a.55.55 0 0 0 .286-.206l1.442-2.006 1.253-1.889.787-1.348a1.03 1.03 0 0 0 0-1.038.5.5 0 0 0-.08-.105l-1.828-1.828a44 44 0 0 0-1.298-1.25q-.352-.352-.481-.498c-.049-.055-.069-.16-.062-.233q.035-.402.159-.855.144-.53.336-1.01.2-.509.439-1.017a.14.14 0 0 0-.027-.158 109 109 0 0 1-1.83-1.878l-1.683-1.682q-.565-.598-1.03-1.072c-.1-.103-.284.016-.268.158q.018.123.023.207a.13.13 0 0 1-.04.098L6.86 16.407a.28.28 0 0 1-.277.069l-2.9-.893a.3.3 0 0 1-.114-.068l-.189-.189a.277.277 0 0 1 0-.391l6.514-6.513a.13.13 0 0 1 .11-.04 2 2 0 0 1 .427.091c.107.013.192-.135.116-.211L9.24 6.958q-.48-.48-.84-.553a1.4 1.4 0 0 0-.626 0 1.3 1.3 0 0 0-.427.243.15.15 0 0 1-.2-.004l-.237-.238a.14.14 0 0 1 0-.195l.846-.846a.1.1 0 0 1 .041-.028l1.62-.725c.09-.04.163-.104.094-.173L7.12 2.047a.1.1 0 0 1 0-.141L8.76.265a.125.125 0 0 1 .178 0l3.074 3.07c.009.005-.008-.008 0 0 .04.04.1.05.152.029l.742-.312a.14.14 0 0 1 .151.03l.971.97q.021.021.048.032l1.052.411a.14.14 0 0 1 .047.031l.795.796a.14.14 0 0 0 .196 0l.093-.093a.14.14 0 0 1 .195 0l.838.838a.14.14 0 0 1 0 .195l-.093.093a.14.14 0 0 0 0 .196l.67.67a.14.14 0 0 0 .196 0l.093-.093a.14.14 0 0 1 .195 0l.838.838a.14.14 0 0 1 0 .195l-.092.093a.14.14 0 0 0 0 .196l.67.67a.14.14 0 0 0 .195 0l.093-.093a.14.14 0 0 1 .195 0l.838.838a.14.14 0 0 1 0 .195l-.093.093a.14.14 0 0 0 0 .196l.67.67a.14.14 0 0 0 .196 0l.093-.094a.14.14 0 0 1 .195 0l.838.839a.14.14 0 0 1 0 .195l-.093.093a.14.14 0 0 0 0 .196l.67.67a.14.14 0 0 0 .196 0l.093-.093a.14.14 0 0 1 .195 0l.862.862a.14.14 0 0 1 0 .195l-.093.093a.14.14 0 0 0 0 .196l.646.645a.14.14 0 0 0 .196 0l.093-.093a.14.14 0 0 1 .195 0l.862.863a.14.14 0 0 1 0 .195l-.093.093a.14.14 0 0 0 0 .196l.67.67a.14.14 0 0 0 .196 0l.093-.093a.14.14 0 0 1 .195 0l.838.838a.14.14 0 0 1 0 .195l-.093.093a.14.14 0 0 0 0 .196l.502.501a.14.14 0 0 0 .195 0l.248-.247a.14.14 0 0 1 .147-.031l1.067.413a.14.14 0 0 1 .048.032l.398.398c.038.038.094.05.144.032l1.037-.373a.14.14 0 0 1 .145.032l1.378 1.379a.14.14 0 0 1 0 .195l-.57.571a.14.14 0 0 1-.126.038l-.816-.163a.14.14 0 0 0-.125.038l-.33.33a.14.14 0 0 0 0 .196l.429.43a.14.14 0 0 0 .196 0l.092-.094a.14.14 0 0 1 .196 0l.838.838a.14.14 0 0 1 0 .196l-.093.093a.14.14 0 0 0 0 .195l.478.478a.14.14 0 0 0 .195 0l.093-.093a.14.14 0 0 1 .196 0l.862.862a.14.14 0 0 1 0 .196l-.16.159a.14.14 0 0 0-.038.075l-.077.463a.14.14 0 0 0 .038.12l.453.453a.14.14 0 0 1 0 .196l-.31.31a.14.14 0 0 0 0 .195zm-14.242-5.99a.1.1 0 0 0 .036-.028l.62-.704a.14.14 0 0 0-.004-.188l-3.603-3.695a.134.134 0 0 0-.176-.015q-.258.195-.482.46a4 4 0 0 0-.457.698c-.15.283-.242.494-.318.79a.14.14 0 0 0 .036.13l2.445 2.445c.15.15.254.253.409.36.149.103.343.09.57.075l.03-.002q.355-.024.894-.326" clip-rule="evenodd"/></g><defs><clipPath id="a"><path fill="#fff" d="M0 0h36v36H0z"/></clipPath></defs></g><g id="weapon_smg2"><g clip-path="url(#a)"><path fill="#fff" fill-rule="evenodd" d="M35.578 26.612c.047.047.054.12.016.175l-1.246 1.835a.1.1 0 0 1-.027.03l-2.075 1.665a.14.14 0 0 1-.184-.01l-.718-.717a.14.14 0 0 0-.088-.04l-.57-.041a.14.14 0 0 1-.088-.04l-4.056-4.057a.138.138 0 0 0-.21.015l-3.22 4.342-2.468 3.499a.55.55 0 0 1-.484.233l-.3-.017a.55.55 0 0 1-.359-.162l-2.856-2.856-.802-.997a.55.55 0 0 1-.097-.509l.02-.065a.55.55 0 0 1 .366-.366l.167-.051a.55.55 0 0 0 .286-.206l1.442-2.006 1.253-1.889.787-1.348a1.03 1.03 0 0 0 0-1.038.5.5 0 0 0-.08-.105l-1.828-1.828a44 44 0 0 0-1.298-1.25q-.352-.352-.481-.498c-.049-.055-.069-.16-.062-.233q.035-.402.159-.855.144-.53.336-1.01.2-.509.439-1.017a.14.14 0 0 0-.027-.158 109 109 0 0 1-1.83-1.878l-1.683-1.682q-.565-.598-1.03-1.072c-.1-.103-.284.016-.268.158q.018.123.023.207a.13.13 0 0 1-.04.098L6.86 16.407a.28.28 0 0 1-.277.069l-2.9-.893a.3.3 0 0 1-.114-.068l-.189-.189a.277.277 0 0 1 0-.391l6.514-6.513a.13.13 0 0 1 .11-.04 2 2 0 0 1 .427.091c.107.013.192-.135.116-.211L9.24 6.958q-.48-.48-.84-.553a1.4 1.4 0 0 0-.626 0 1.3 1.3 0 0 0-.427.243.15.15 0 0 1-.2-.004l-.237-.238a.14.14 0 0 1 0-.195l.846-.846a.1.1 0 0 1 .041-.028l1.62-.725c.09-.04.163-.104.094-.173L7.12 2.047a.1.1 0 0 1 0-.141L8.76.265a.125.125 0 0 1 .178 0l3.074 3.07c.009.005-.008-.008 0 0 .04.04.1.05.152.029l.742-.312a.14.14 0 0 1 .151.03l.971.97q.021.021.048.032l1.052.411a.14.14 0 0 1 .047.031l.795.796a.14.14 0 0 0 .196 0l.093-.093a.14.14 0 0 1 .195 0l.838.838a.14.14 0 0 1 0 .195l-.093.093a.14.14 0 0 0 0 .196l.67.67a.14.14 0 0 0 .196 0l.093-.093a.14.14 0 0 1 .195 0l.838.838a.14.14 0 0 1 0 .195l-.092.093a.14.14 0 0 0 0 .196l.67.67a.14.14 0 0 0 .195 0l.093-.093a.14.14 0 0 1 .195 0l.838.838a.14.14 0 0 1 0 .195l-.093.093a.14.14 0 0 0 0 .196l.67.67a.14.14 0 0 0 .196 0l.093-.094a.14.14 0 0 1 .195 0l.838.839a.14.14 0 0 1 0 .195l-.093.093a.14.14 0 0 0 0 .196l.67.67a.14.14 0 0 0 .196 0l.093-.093a.14.14 0 0 1 .195 0l.862.862a.14.14 0 0 1 0 .195l-.093.093a.14.14 0 0 0 0 .196l.646.645a.14.14 0 0 0 .196 0l.093-.093a.14.14 0 0 1 .195 0l.862.863a.14.14 0 0 1 0 .195l-.093.093a.14.14 0 0 0 0 .196l.67.67a.14.14 0 0 0 .196 0l.093-.093a.14.14 0 0 1 .195 0l.838.838a.14.14 0 0 1 0 .195l-.093.093a.14.14 0 0 0 0 .196l.502.501a.14.14 0 0 0 .195 0l.248-.247a.14.14 0 0 1 .147-.031l1.067.413a.14.14 0 0 1 .048.032l.398.398c.038.038.094.05.144.032l1.037-.373a.14.14 0 0 1 .145.032l1.378 1.379a.14.14 0 0 1 0 .195l-.57.571a.14.14 0 0 1-.126.038l-.816-.163a.14.14 0 0 0-.125.038l-.33.33a.14.14 0 0 0 0 .196l.429.43a.14.14 0 0 0 .196 0l.092-.094a.14.14 0 0 1 .196 0l.838.838a.14.14 0 0 1 0 .196l-.093.093a.14.14 0 0 0 0 .195l.478.478a.14.14 0 0 0 .195 0l.093-.093a.14.14 0 0 1 .196 0l.862.862a.14.14 0 0 1 0 .196l-.16.159a.14.14 0 0 0-.038.075l-.077.463a.14.14 0 0 0 .038.12l.453.453a.14.14 0 0 1 0 .196l-.31.31a.14.14 0 0 0 0 .195zm-14.242-5.99a.1.1 0 0 0 .036-.028l.62-.704a.14.14 0 0 0-.004-.188l-3.603-3.695a.134.134 0 0 0-.176-.015q-.258.195-.482.46a4 4 0 0 0-.457.698c-.15.283-.242.494-.318.79a.14.14 0 0 0 .036.13l2.445 2.445c.15.15.254.253.409.36.149.103.343.09.57.075l.03-.002q.355-.024.894-.326" clip-rule="evenodd"/></g><defs><clipPath id="a"><path fill="#fff" d="M0 0h36v36H0z"/></clipPath></defs></g><g id="weapon_supergravgun"><path fill="#fff" fill-rule="evenodd" d="M23.288 9.243a.244.244 0 0 1-.02.402l-1.574.956a.244.244 0 0 0-.046.38l1.56 1.56a.244.244 0 0 1-.095.403l-1.159.389a.244.244 0 0 0-.095.403l4.898 4.898c.055.055.134.08.211.068l1.007-.164a.24.24 0 0 1 .211.068L31.2 21.62a.24.24 0 0 1 .071.173v1.653q0 .075.041.136l1.193 1.79c.036.054.05.12.036.184l-.679 3.263c-.06.268-.096.414-.202.723a4 4 0 0 1-.927 1.507 3.8 3.8 0 0 1-2.234 1.087.25.25 0 0 0-.217.183l-.215.796a1.293 1.293 0 0 1-2.494-.667v-.001l-.001-.002.22-.825a.25.25 0 0 0-.09-.264 3.796 3.796 0 0 1-1.434-3.435.256.256 0 0 0-.187-.279l-1.947-.503a.23.23 0 0 1-.103-.057c-.406-.402-.964-1.35-.387-2.367a.264.264 0 0 0-.036-.317l-.047-.047a.244.244 0 0 0-.344 0l-.869.87a.244.244 0 0 1-.345 0l-4.813-4.814a.244.244 0 0 0-.404.095l-.388 1.158a.244.244 0 0 1-.403.095l-1.56-1.56a.244.244 0 0 0-.38.046l-.956 1.574a.244.244 0 0 1-.402.02L6.473 16.3a.24.24 0 0 1-.024-.256l.533-1.066a.24.24 0 0 0-.045-.281l-1.93-1.93a.244.244 0 0 0-.403.097l-.08.24a.244.244 0 0 1-.403.096l-.596-.596a.24.24 0 0 1-.06-.249l1.78-5.4a.24.24 0 0 1 .082-.115l.888-.692a.24.24 0 0 1 .177-.05l.688.077a.223.223 0 0 1 .087.415l-.456.264a.2.2 0 0 0-.05.038l-.4.4a.24.24 0 0 0-.07.21l.05.308a.24.24 0 0 1-.01.114l-.384 1.175a.24.24 0 0 0 .06.248l5.248 5.248c.095.096.25.096.345 0l4.548-4.548a.244.244 0 0 0 0-.345L10.8 4.453a.24.24 0 0 0-.249-.06l-1.174.384a.24.24 0 0 1-.114.01l-.308-.049a.24.24 0 0 0-.21.069l-.4.4a.2.2 0 0 0-.039.05l-.264.456a.223.223 0 0 1-.415-.087l-.076-.688a.24.24 0 0 1 .05-.176l.692-.888a.24.24 0 0 1 .116-.082l5.399-1.78a.24.24 0 0 1 .248.06l.596.595a.244.244 0 0 1-.096.404l-.24.079a.244.244 0 0 0-.096.404l1.93 1.929a.24.24 0 0 0 .28.046l1.066-.534a.24.24 0 0 1 .257.024zm-5.939 4.42 3.194 4.486a.097.097 0 0 1-.08.154h-2.575a.097.097 0 0 0-.067.168l8.4 7.993c.086.082.216-.033.145-.13l-4.413-5.96a.097.097 0 0 1 .079-.156h2.563c.089 0 .131-.11.065-.17l-7.166-6.514c-.086-.079-.212.033-.145.128" clip-rule="evenodd"/></g></defs></svg>
